{
  "accessors": [
    {
      "bufferView": 2,
      "componentType": 5126,
      "count": 6062,
      "max": [
        9.8656520843505859,
        4.3787870407104492,
        16.158544540405273
      ],
      "min": [
        -9.8563442230224609,
        -4.3700237274169922,
        -15.922659873962402
      ],
      "type": "VEC3"
    },
    {
      "bufferView": 2,
      "byteOffset": 72744,
      "componentType": 5126,
      "count": 6062,
      "max": [
        0.99983566999435425,
        0.99999737739562988,
        0.99939215183258057
      ],
      "min": [
        -0.99975025653839111,
        -0.99999994039535522,
        -0.99469751119613647
      ],
      "type": "VEC3"
    },
    {
      "bufferView": 3,
      "componentType": 5126,
      "count": 6062,
      "max": [
        0.96965700387954712,
        0.99874716997146606,
        0.85607665777206421,
        1
      ],
      "min": [
        -0.99999725818634033,
        -0.97965264320373535,
        -0.9999852180480957,
        -1
      ],
      "type": "VEC4"
    },
    {
      "bufferView": 1,
      "componentType": 5126,
      "count": 6062,
      "max": [
        0.99803996086120605,
        0.99341440200805664
      ],
      "min": [
        0.0067509934306144714,
        0.0019500000635161996
      ],
      "type": "VEC2"
    },
    {
      "bufferView": 0,
      "componentType": 5125,
      "count": 35454,
      "max": [
        6061
      ],
      "min": [
        0
      ],
      "type": "SCALAR"
    },
    {
      "bufferView": 2,
      "byteOffset": 145488,
      "componentType": 5126,
      "count": 129,
      "max": [
        9.7661886215209961,
        4.2642707824707031,
        -15.92265796661377
      ],
      "min": [
        -9.7478456497192383,
        -3.5248038768768311,
        -15.922659873962402
      ],
      "type": "VEC3"
    },
    {
      "bufferView": 2,
      "byteOffset": 147036,
      "componentType": 5126,
      "count": 129,
      "max": [
        5.5558200983796269e-05,
        6.2710350903216749e-05,
        -1
      ],
      "min": [
        -1.6965450413408689e-05,
        -5.3802625188836828e-05,
        -1
      ],
      "type": "VEC3"
    },
    {
      "bufferView": 3,
      "byteOffset": 96992,
      "componentType": 5126,
      "count": 129,
      "max": [
        -0.99999940395355225,
        0.00022410850215237588,
        1.6965101167443208e-05,
        1
      ],
      "min": [
        -1,
        -0.0011324057122692466,
        -5.5558979511260986e-05,
        1
      ],
      "type": "VEC4"
    },
    {
      "bufferView": 1,
      "byteOffset": 48496,
      "componentType": 5126,
      "count": 129,
      "max": [
        1.1022722721099854,
        0.69153320789337158
      ],
      "min": [
        -0.16549861431121826,
        0.18043899536132812
      ],
      "type": "VEC2"
    },
    {
      "bufferView": 0,
      "byteOffset": 141816,
      "componentType": 5125,
      "count": 246,
      "max": [
        128
      ],
      "min": [
        0
      ],
      "type": "SCALAR"
    }
  ],
  "asset": {
    "extras": {
      "author": "Francesco Coldesina (https://sketchfab.com/topfrank2013)",
      "license": "CC-BY-4.0 (http://creativecommons.org/licenses/by/4.0/)",
      "source": "https://sketchfab.com/models/991329d0c4d044d6b300d38f700b1c5a",
      "title": "Bhudda Low Poly"
    },
    "generator": "Sketchfab-3.19.6",
    "version": "2.0"
  },
  "bufferViews": [
    {
      "buffer": 0,
      "byteLength": 142800,
      "byteOffset": 0,
      "name": "floatBufferViews",
      "target": 34963
    },
    {
      "buffer": 0,
      "byteLength": 49528,
      "byteOffset": 142800,
      "byteStride": 8,
      "name": "floatBufferViews",
      "target": 34962
    },
    {
      "buffer": 0,
      "byteLength": 148584,
      "byteOffset": 192328,
      "byteStride": 12,
      "name": "floatBufferViews",
      "target": 34962
    },
    {
      "buffer": 0,
      "byteLength": 99056,
      "byteOffset": 340912,
      "byteStride": 16,
      "name": "floatBufferViews",
      "target": 34962
    }
  ],
  "buffers": [
    {
      "byteLength": 439968,
      "uri": "scene.bin"
    }
  ],
  "images": [
    {
      "uri": "textures/Budda_normal.png"
    },
    {
      "uri": "textures/Budda_baseColor.jpeg"
    },
    {
      "uri": "textures/Logo_baseColor.jpeg"
    }
  ],
  "materials": [
    {
      "doubleSided": true,
      "emissiveFactor": [
        0,
        0,
        0
      ],
      "name": "Budda",
      "normalTexture": {
        "index": 0,
        "scale": 1,
        "texCoord": 0
      },
      "pbrMetallicRoughness": {
        "baseColorFactor": [
          1,
          1,
          1,
          1
        ],
        "baseColorTexture": {
          "index": 1,
          "texCoord": 0
        },
        "metallicFactor": 0,
        "roughnessFactor": 0.59999999999999998
      }
    },
    {
      "doubleSided": true,
      "emissiveFactor": [
        0,
        0,
        0
      ],
      "name": "Logo",
      "pbrMetallicRoughness": {
        "baseColorFactor": [
          1,
          1,
          1,
          1
        ],
        "baseColorTexture": {
          "index": 2,
          "texCoord": 0
        },
        "metallicFactor": 0,
        "roughnessFactor": 0.59999999999999998
      }
    }
  ],
  "meshes": [
    {
      "name": "Budda-LR1_Budda_0",
      "primitives": [
        {
          "attributes": {
            "NORMAL": 1,
            "POSITION": 0,
            "TANGENT": 2,
            "TEXCOORD_0": 3
          },
          "indices": 4,
          "material": 0,
          "mode": 4
        }
      ]
    },
    {
      "name": "Budda-LR1_Logo_0",
      "primitives": [
        {
          "attributes": {
            "NORMAL": 6,
            "POSITION": 5,
            "TANGENT": 7,
            "TEXCOORD_0": 8
          },
          "indices": 9,
          "material": 1,
          "mode": 4
        }
      ]
    }
  ],
  "nodes": [
    {
      "children": [
        1
      ],
      "name": "RootNode (gltf orientation matrix)",
      "rotation": [
        -0.70710678118654746,
        -0,
        -0,
        0.70710678118654757
      ]
    },
    {
      "children": [
        2
      ],
      "name": "RootNode (model correction matrix)"
    },
    {
      "children": [
        3
      ],
      "matrix": [
        1,
        0,
        0,
        0,
        0,
        0,
        1,
        0,
        0,
        -1,
        0,
        0,
        0,
        0,
        0,
        1
      ],
      "name": "Bhudda Low Poly.fbx"
    },
    {
      "children": [
        4
      ],
      "name": "RootNode"
    },
    {
      "children": [
        5,
        6
      ],
      "matrix": [
        1,
        0,
        0,
        0,
        0,
        2.2204460492503131e-16,
        -1,
        0,
        0,
        1,
        2.2204460492503131e-16,
        0,
        -0.23367999494075775,
        0.12700000405311584,
        0.11794914305210114,
        1
      ],
      "name": "Budda-LR1"
    },
    {
      "mesh": 0,
      "name": "Budda-LR1_Budda_0"
    },
    {
      "mesh": 1,
      "name": "Budda-LR1_Logo_0"
    }
  ],
  "samplers": [
    {
      "magFilter": 9729,
      "minFilter": 9987,
      "wrapS": 10497,
      "wrapT": 10497
    }
  ],
  "scene": 0,
  "scenes": [
    {
      "name": "OSG_Scene",
      "nodes": [
        0
      ]
    }
  ],
  "textures": [
    {
      "sampler": 0,
      "source": 0
    },
    {
      "sampler": 0,
      "source": 1
    },
    {
      "sampler": 0,
      "source": 2
    }
  ]
}

